<svg id="svg" xmlns="http://www.w3.org/2000/svg" xmlns:xlink="http://www.w3.org/1999/xlink" viewBox="0, 0, 400,400"><g id="svgg"><path id="path0" d="M292.042 226.766 C 291.032 227.405,291.903 228.309,295.163 230.005 C 298.496 231.739,299.318 232.517,303.457 237.852 C 309.026 245.032,309.348 255.335,304.242 263.000 C 303.070 264.760,301.880 266.650,301.598 267.200 C 301.002 268.363,294.162 275.250,291.762 277.103 C 290.862 277.799,289.711 278.973,289.205 279.711 C 288.699 280.449,287.383 281.672,286.281 282.427 C 282.596 284.951,281.683 287.605,284.612 287.276 C 286.212 287.096,290.833 284.664,292.000 283.387 C 292.550 282.786,294.170 281.531,295.600 280.597 C 297.030 279.664,298.740 278.315,299.400 277.600 C 300.060 276.884,301.438 275.627,302.463 274.807 C 312.523 266.752,319.034 249.297,314.939 241.362 C 312.540 236.715,310.220 233.508,308.045 231.835 C 306.790 230.869,305.515 229.780,305.211 229.413 C 303.441 227.281,294.172 225.417,292.042 226.766 M268.405 228.500 C 266.657 229.391,265.838 230.402,266.867 230.398 C 268.050 230.393,273.349 228.552,273.503 228.092 C 273.788 227.235,270.345 227.511,268.405 228.500 M260.800 232.953 C 257.898 233.972,249.045 243.259,246.719 247.725 C 241.761 257.241,242.801 279.942,248.513 286.922 C 254.051 293.689,255.268 296.687,254.326 301.246 C 253.715 304.205,254.064 304.642,257.318 304.995 C 258.683 305.142,260.450 305.429,261.244 305.632 C 262.976 306.074,269.108 311.309,270.464 313.503 C 270.973 314.326,272.228 315.927,273.254 317.059 C 274.279 318.192,275.620 319.992,276.233 321.059 C 276.845 322.127,278.216 324.109,279.279 325.464 C 285.407 333.277,289.268 349.217,286.838 356.664 C 284.368 364.232,281.097 371.022,278.222 374.551 C 276.009 377.269,275.466 378.270,276.022 378.613 C 276.897 379.154,278.374 378.342,279.962 376.445 C 280.871 375.360,282.271 374.218,283.101 373.885 C 285.512 372.917,290.514 367.092,292.888 362.487 C 293.990 360.349,295.408 357.610,296.039 356.400 C 300.509 347.821,300.110 331.717,295.216 323.200 C 294.141 321.330,292.870 318.752,292.391 317.471 C 291.501 315.089,287.728 310.032,282.820 304.642 C 278.864 300.297,278.046 297.513,279.408 293.025 C 280.420 289.689,280.006 289.409,273.800 289.231 C 270.284 289.131,269.436 288.623,265.846 284.467 C 264.009 282.340,262.099 279.790,261.601 278.800 C 261.102 277.810,259.746 275.380,258.585 273.400 C 251.760 261.750,253.082 246.268,261.736 236.493 C 265.245 232.531,264.969 231.488,260.800 232.953 M75.400 235.742 C 74.520 236.037,72.630 236.927,71.200 237.719 C 69.770 238.510,66.890 239.818,64.800 240.623 C 56.378 243.870,51.600 247.114,51.600 249.584 C 51.600 249.817,53.157 250.747,55.061 251.652 C 64.099 255.946,64.967 259.304,60.566 272.951 C 59.794 275.344,58.887 279.124,58.550 281.351 C 57.306 289.571,56.463 293.111,54.644 297.758 C 52.797 302.477,51.631 307.429,50.214 316.580 C 49.795 319.290,48.954 322.494,48.010 324.980 C 45.692 331.088,45.275 332.789,44.404 339.668 C 43.444 347.250,43.336 347.748,41.025 355.314 C 40.031 358.567,38.747 363.697,38.171 366.714 C 37.596 369.731,36.680 373.280,36.136 374.600 C 33.504 380.992,36.056 384.590,43.200 384.557 C 52.128 384.515,54.530 382.205,55.993 372.248 C 57.026 365.216,57.631 362.295,60.017 352.800 C 61.095 348.510,62.876 340.500,63.975 335.000 C 66.529 322.212,72.330 303.548,75.427 298.149 C 77.944 293.762,81.289 289.276,83.404 287.450 C 85.166 285.928,85.992 284.790,87.240 282.163 C 89.228 277.980,89.284 278.211,86.264 278.140 C 82.063 278.039,79.367 276.081,78.632 272.594 C 77.978 269.492,80.733 256.875,83.071 252.259 C 88.626 241.297,84.611 232.653,75.400 235.742 M147.800 236.112 C 139.428 239.828,129.059 245.123,126.438 247.021 C 125.207 247.912,122.940 249.455,121.400 250.450 C 119.860 251.445,117.541 253.187,116.248 254.321 C 114.954 255.455,112.950 256.916,111.795 257.568 C 108.924 259.188,106.676 262.400,108.413 262.400 C 109.321 262.400,115.533 259.812,117.600 258.573 C 132.956 249.367,145.387 257.570,140.582 273.738 C 140.049 275.532,138.627 280.960,137.421 285.800 C 136.215 290.640,133.950 298.290,132.387 302.800 C 130.824 307.310,128.757 314.240,127.794 318.200 C 126.830 322.160,125.397 327.290,124.609 329.600 C 122.950 334.462,122.039 337.893,120.616 344.643 C 120.054 347.307,118.779 352.162,117.784 355.432 C 113.248 370.325,113.475 378.809,118.601 385.940 C 122.987 392.042,128.782 392.929,136.000 388.604 C 137.210 387.879,140.000 386.271,142.200 385.032 C 147.505 382.044,152.049 378.839,155.065 375.956 C 156.421 374.660,157.733 373.600,157.980 373.600 C 158.227 373.600,159.472 372.565,160.747 371.300 C 162.022 370.035,163.998 368.504,165.138 367.897 C 166.635 367.101,167.555 366.236,168.447 364.786 C 169.126 363.682,170.159 362.531,170.742 362.230 C 172.253 361.449,173.337 360.133,173.061 359.415 C 172.661 358.372,171.260 358.730,169.491 360.327 C 168.561 361.166,166.990 362.322,166.000 362.895 C 165.010 363.468,162.754 365.436,160.986 367.268 C 157.948 370.418,156.591 371.371,150.400 374.701 C 145.507 377.333,137.624 374.172,135.811 368.851 C 134.377 364.643,136.053 353.037,139.831 341.023 C 140.588 338.616,141.484 335.196,141.823 333.423 C 143.145 326.501,143.776 324.425,146.018 319.600 C 147.808 315.747,148.630 313.316,149.600 309.000 C 150.292 305.920,151.310 302.320,151.862 301.000 C 154.219 295.369,155.549 291.137,156.198 287.200 C 156.937 282.724,158.414 277.541,159.640 275.129 C 161.450 271.564,163.388 261.987,164.198 252.600 C 165.163 241.418,156.185 232.391,147.800 236.112 M103.731 264.183 C 102.440 264.745,101.600 265.845,101.600 266.974 C 101.600 268.122,103.580 267.700,105.040 266.240 C 107.294 263.986,106.620 262.926,103.731 264.183 M236.400 317.033 C 234.750 318.252,232.230 319.954,230.800 320.815 C 229.370 321.676,227.210 323.393,226.001 324.629 C 224.791 325.866,223.493 327.043,223.116 327.245 C 222.739 327.447,221.858 328.464,221.159 329.506 C 220.460 330.548,219.024 332.300,217.966 333.400 C 216.543 334.881,215.767 336.172,214.978 338.372 C 214.391 340.006,213.114 342.543,212.139 344.008 C 208.028 350.191,208.557 365.562,213.091 371.632 C 213.981 372.824,215.086 374.549,215.545 375.465 C 216.005 376.381,217.240 377.815,218.290 378.652 C 219.341 379.488,221.117 381.018,222.238 382.050 C 224.299 383.949,226.285 384.794,228.700 384.798 C 230.559 384.801,230.357 384.343,227.068 381.095 C 225.268 379.317,223.545 377.120,222.603 375.400 C 221.759 373.860,220.495 371.880,219.794 371.000 C 214.917 364.882,215.023 349.051,219.984 342.620 C 220.871 341.471,222.095 339.073,222.824 337.058 C 223.861 334.193,224.538 333.046,226.365 331.058 C 227.607 329.706,229.111 327.842,229.707 326.916 C 230.302 325.991,231.782 324.500,232.994 323.604 C 234.445 322.533,235.533 321.316,236.177 320.046 C 236.818 318.781,237.562 317.947,238.335 317.627 C 239.663 317.077,241.200 315.766,241.200 315.184 C 241.200 314.215,239.141 315.008,236.400 317.033 " stroke="none" fill="#d7dae0" fill-rule="evenodd"></path><path id="path1" d="M161.977 15.179 C 159.797 15.841,159.433 16.107,153.739 21.216 C 149.930 24.632,149.647 34.091,153.252 37.459 C 158.182 42.063,162.745 41.920,168.874 36.968 C 173.851 32.947,175.849 27.596,174.367 22.258 C 173.131 17.804,166.261 13.879,161.977 15.179 M336.206 20.034 C 334.889 20.688,333.179 21.829,332.406 22.570 C 331.633 23.311,329.964 24.572,328.698 25.372 C 327.432 26.172,325.517 27.608,324.443 28.562 C 323.368 29.516,320.714 31.250,318.544 32.415 C 316.375 33.580,313.854 35.039,312.941 35.657 C 312.029 36.276,309.647 37.491,307.647 38.358 C 305.647 39.226,302.974 40.554,301.706 41.310 C 300.437 42.066,297.642 43.355,295.493 44.176 C 293.218 45.044,290.753 46.326,289.591 47.245 C 288.493 48.112,286.207 49.455,284.510 50.228 C 279.141 52.675,278.399 54.343,282.287 55.220 C 284.391 55.694,287.241 54.774,289.811 52.791 C 293.328 50.078,305.212 47.214,309.004 48.165 C 313.642 49.329,314.449 58.782,310.988 71.400 C 310.445 73.380,309.553 76.615,309.006 78.589 C 308.459 80.564,307.636 84.704,307.178 87.789 C 306.088 95.132,305.837 96.203,304.146 100.717 C 302.284 105.687,301.781 107.459,300.994 111.800 C 300.008 117.242,299.305 119.808,297.585 124.249 C 296.619 126.742,295.537 130.738,294.769 134.649 C 294.083 138.142,292.745 143.430,291.796 146.400 C 290.847 149.370,289.863 152.970,289.609 154.400 C 288.374 161.353,283.921 173.430,280.730 178.480 C 277.931 182.910,271.502 187.040,265.300 188.393 C 263.265 188.837,259.910 189.568,257.845 190.018 C 254.292 190.793,252.800 191.589,252.800 192.712 C 252.800 193.835,254.601 193.937,270.998 193.736 C 295.455 193.437,314.495 194.035,318.303 195.221 C 321.798 196.310,323.344 195.962,323.126 194.136 C 322.921 192.417,321.404 191.726,315.495 190.662 C 302.065 188.243,301.399 185.195,308.228 157.400 C 309.417 152.560,310.765 146.530,311.224 144.000 C 311.682 141.470,313.036 135.565,314.232 130.879 C 315.428 126.192,317.300 118.182,318.392 113.079 C 319.483 107.975,321.104 101.010,321.994 97.600 C 323.647 91.259,324.658 86.813,325.812 80.800 C 326.171 78.930,327.247 75.047,328.203 72.171 C 329.159 69.295,330.425 64.345,331.016 61.171 C 331.665 57.690,332.952 52.861,334.259 49.000 C 335.585 45.086,336.741 40.736,337.235 37.800 C 338.294 31.509,338.930 29.105,340.392 25.882 C 343.076 19.963,341.313 17.501,336.206 20.034 M141.419 82.445 C 138.164 82.919,136.755 83.407,132.800 85.432 C 130.930 86.389,127.792 87.902,125.827 88.795 C 123.862 89.687,121.702 90.838,121.027 91.352 C 120.352 91.866,118.551 93.052,117.024 93.986 C 114.339 95.629,112.457 97.265,106.851 102.832 C 105.393 104.280,103.514 105.974,102.676 106.598 C 100.010 108.581,99.398 111.019,101.093 112.900 C 102.514 114.476,104.464 113.662,109.000 109.599 C 111.523 107.339,114.720 104.783,119.232 101.418 C 121.896 99.432,127.731 99.440,129.724 101.433 C 131.790 103.499,131.454 107.941,128.754 114.259 C 127.803 116.485,126.607 120.482,125.754 124.281 C 124.886 128.145,123.586 132.472,122.406 135.418 C 121.137 138.590,120.117 142.054,119.423 145.560 C 118.802 148.695,117.551 153.092,116.380 156.254 C 114.986 160.020,113.963 163.802,112.957 168.912 C 112.168 172.921,110.839 178.360,110.004 181.000 C 107.370 189.327,105.818 204.953,107.142 209.806 C 109.215 217.405,118.169 219.852,126.724 215.158 C 128.332 214.275,131.038 212.967,132.737 212.250 C 135.804 210.957,139.213 208.539,145.255 203.372 C 146.935 201.935,149.199 200.093,150.286 199.280 C 158.643 193.020,162.214 188.004,159.762 185.968 C 158.862 185.221,153.342 188.196,150.400 191.015 C 149.190 192.174,147.300 193.669,146.200 194.337 C 145.100 195.006,143.489 196.305,142.621 197.224 C 138.365 201.729,131.900 201.788,129.932 197.339 C 128.177 193.371,130.005 179.577,133.828 167.950 C 135.033 164.284,136.632 158.521,137.380 155.143 C 138.128 151.764,139.473 146.962,140.369 144.472 C 141.264 141.981,142.364 138.111,142.813 135.872 C 143.931 130.294,144.611 128.020,146.466 123.652 C 147.403 121.448,148.640 117.330,149.472 113.652 C 150.249 110.214,151.579 105.506,152.428 103.190 C 158.363 86.993,154.906 80.479,141.419 82.445 M246.100 309.865 C 245.611 310.062,245.378 311.200,245.826 311.200 C 246.455 311.200,247.592 310.311,247.388 309.980 C 247.135 309.571,246.883 309.549,246.100 309.865 M240.176 313.392 C 236.694 314.705,234.375 315.928,233.000 317.174 C 232.340 317.772,230.810 318.869,229.600 319.612 C 224.210 322.919,215.500 331.273,213.122 335.417 C 212.309 336.834,211.091 338.796,210.416 339.777 C 205.758 346.547,204.612 361.057,207.979 370.637 C 210.001 376.389,219.304 385.353,225.086 387.121 C 234.615 390.034,236.281 390.419,239.542 390.461 C 244.226 390.522,244.819 389.877,241.917 387.878 C 240.753 387.076,239.080 385.901,238.200 385.268 C 237.320 384.634,235.520 383.532,234.200 382.819 C 223.288 376.920,216.610 359.443,220.972 348.200 C 221.569 346.660,222.835 343.277,223.784 340.683 C 224.733 338.089,226.158 335.029,226.952 333.883 C 227.745 332.737,229.183 330.667,230.146 329.281 C 231.110 327.896,233.005 325.646,234.358 324.281 C 240.657 317.928,243.234 314.846,243.097 313.828 C 242.905 312.394,242.845 312.385,240.176 313.392 M241.200 315.184 C 241.200 315.766,239.663 317.077,238.335 317.627 C 237.562 317.947,236.818 318.781,236.177 320.046 C 235.533 321.316,234.445 322.533,232.994 323.604 C 231.782 324.500,230.302 325.991,229.707 326.916 C 229.111 327.842,227.607 329.706,226.365 331.058 C 224.538 333.046,223.861 334.193,222.824 337.058 C 222.095 339.073,220.871 341.471,219.984 342.620 C 217.292 346.110,216.391 349.934,216.408 357.790 C 216.423 364.788,217.173 367.712,219.794 371.000 C 220.495 371.880,221.759 373.860,222.603 375.400 C 223.545 377.120,225.268 379.317,227.068 381.095 C 230.357 384.343,230.559 384.801,228.700 384.798 C 226.285 384.794,224.299 383.949,222.238 382.050 C 221.117 381.018,219.341 379.488,218.290 378.652 C 217.240 377.815,216.005 376.381,215.545 375.465 C 215.086 374.549,213.981 372.824,213.091 371.632 C 208.557 365.562,208.028 350.191,212.139 344.008 C 213.114 342.543,214.391 340.006,214.978 338.372 C 215.767 336.172,216.543 334.881,217.966 333.400 C 219.024 332.300,220.460 330.548,221.159 329.506 C 221.858 328.464,222.739 327.447,223.116 327.245 C 223.493 327.043,224.791 325.866,226.001 324.629 C 227.210 323.393,229.370 321.676,230.800 320.815 C 232.230 319.954,234.750 318.252,236.400 317.033 C 239.141 315.008,241.200 314.215,241.200 315.184 " stroke="none" fill="#d7dae0" fill-rule="evenodd"></path><path id="path2" d="M160.400 11.972 C 153.107 13.430,146.439 23.995,147.582 32.282 C 150.384 52.593,178.492 45.451,177.522 24.675 C 177.074 15.094,170.219 10.009,160.400 11.972 M338.569 12.967 C 337.892 13.262,336.722 14.034,335.969 14.683 C 335.216 15.331,333.700 16.462,332.600 17.196 C 331.500 17.930,329.700 19.368,328.600 20.392 C 325.895 22.909,317.281 28.588,313.644 30.253 C 312.018 30.997,309.829 32.223,308.780 32.976 C 306.456 34.646,304.376 35.726,301.318 36.850 C 300.043 37.319,297.528 38.584,295.728 39.661 C 293.929 40.738,290.796 42.237,288.766 42.991 C 286.673 43.770,283.588 45.357,281.638 46.660 C 279.747 47.923,277.551 49.378,276.758 49.893 C 272.490 52.663,274.456 59.971,279.475 59.994 C 282.809 60.010,289.909 57.831,295.306 55.137 C 308.074 48.763,310.907 51.282,307.596 66.068 C 306.713 70.008,305.452 76.570,304.792 80.650 C 303.931 85.971,303.094 89.556,301.828 93.334 C 300.857 96.230,299.507 101.445,298.829 104.923 C 298.039 108.968,296.945 112.981,295.792 116.065 C 294.632 119.165,293.634 122.832,292.995 126.342 C 291.605 133.978,291.254 135.393,289.896 138.800 C 288.301 142.803,287.755 144.899,286.821 150.600 C 285.953 155.902,285.566 157.175,283.457 161.662 C 282.666 163.346,281.644 166.136,281.186 167.862 C 280.073 172.055,279.659 173.099,278.325 175.076 C 274.169 181.237,266.684 185.164,256.400 186.580 C 246.557 187.935,244.305 189.510,244.232 195.091 C 244.163 200.446,246.973 201.177,260.000 199.191 C 277.009 196.599,290.443 196.641,307.600 199.341 C 325.291 202.125,331.367 200.868,331.307 194.434 C 331.255 188.990,328.756 187.592,317.672 186.804 C 311.002 186.331,309.389 185.779,308.301 183.600 C 306.779 180.554,307.577 174.092,310.601 164.982 C 311.845 161.234,312.634 157.803,313.399 152.804 C 314.052 148.546,314.930 144.515,315.661 142.422 C 318.078 135.503,318.390 134.297,319.623 127.119 C 320.314 123.093,321.477 117.820,322.207 115.400 C 324.164 108.912,324.655 106.823,325.777 100.200 C 326.336 96.900,327.598 91.450,328.580 88.090 C 329.563 84.729,331.388 77.709,332.636 72.490 C 333.884 67.270,335.490 61.200,336.205 59.000 C 336.920 56.800,337.976 52.930,338.551 50.400 C 339.126 47.870,340.044 43.820,340.590 41.400 C 341.136 38.980,342.417 34.210,343.437 30.800 C 347.431 17.444,345.397 9.994,338.569 12.967 M168.295 16.011 C 176.865 20.293,177.141 30.288,168.874 36.968 C 162.745 41.920,158.182 42.063,153.252 37.459 C 149.647 34.091,149.930 24.632,153.739 21.216 C 159.433 16.107,159.797 15.841,161.977 15.179 C 164.028 14.557,165.871 14.799,168.295 16.011 M340.977 19.689 C 341.913 21.025,341.734 22.922,340.392 25.882 C 338.930 29.105,338.294 31.509,337.235 37.800 C 336.741 40.736,335.585 45.086,334.259 49.000 C 332.952 52.861,331.665 57.690,331.016 61.171 C 330.425 64.345,329.159 69.295,328.203 72.171 C 327.247 75.047,326.171 78.930,325.812 80.800 C 324.658 86.813,323.647 91.259,321.994 97.600 C 321.104 101.010,319.483 107.975,318.392 113.079 C 317.300 118.182,315.428 126.192,314.232 130.879 C 313.036 135.565,311.682 141.470,311.224 144.000 C 310.765 146.530,309.417 152.560,308.228 157.400 C 301.399 185.195,302.065 188.243,315.495 190.662 C 321.404 191.726,322.921 192.417,323.126 194.136 C 323.344 195.962,321.798 196.310,318.303 195.221 C 314.495 194.035,295.455 193.437,270.998 193.736 C 254.601 193.937,252.800 193.835,252.800 192.712 C 252.800 191.589,254.292 190.793,257.845 190.018 C 259.910 189.568,263.265 188.837,265.300 188.393 C 271.502 187.040,277.931 182.910,280.730 178.480 C 283.921 173.430,288.374 161.353,289.609 154.400 C 289.863 152.970,290.847 149.370,291.796 146.400 C 292.745 143.430,294.083 138.142,294.769 134.649 C 295.537 130.738,296.619 126.742,297.585 124.249 C 299.305 119.808,300.008 117.242,300.994 111.800 C 301.781 107.459,302.284 105.687,304.146 100.717 C 305.837 96.203,306.088 95.132,307.178 87.789 C 307.636 84.704,308.459 80.564,309.006 78.589 C 309.553 76.615,310.445 73.380,310.988 71.400 C 314.449 58.782,313.642 49.329,309.004 48.165 C 305.212 47.214,293.328 50.078,289.811 52.791 C 287.241 54.774,284.391 55.694,282.287 55.220 C 278.399 54.343,279.141 52.675,284.510 50.228 C 286.207 49.455,288.493 48.112,289.591 47.245 C 290.753 46.326,293.218 45.044,295.493 44.176 C 297.642 43.355,300.437 42.066,301.706 41.310 C 302.974 40.554,305.647 39.226,307.647 38.358 C 309.647 37.491,312.029 36.276,312.941 35.657 C 313.854 35.039,316.375 33.580,318.544 32.415 C 320.714 31.250,323.368 29.516,324.443 28.562 C 325.517 27.608,327.432 26.172,328.698 25.372 C 329.964 24.572,331.633 23.311,332.406 22.570 C 335.486 19.616,339.890 18.136,340.977 19.689 M137.923 79.966 C 132.899 81.059,131.723 81.493,128.600 83.400 C 127.060 84.341,124.270 85.869,122.400 86.797 C 120.530 87.724,118.550 88.902,118.000 89.414 C 117.450 89.925,115.717 91.122,114.149 92.072 C 110.932 94.022,97.030 106.849,95.900 108.911 C 93.551 113.196,96.257 117.888,101.313 118.294 L 103.922 118.503 106.861 115.846 C 113.974 109.415,115.132 108.443,117.400 107.009 C 118.720 106.174,120.309 105.066,120.931 104.546 C 122.128 103.544,124.269 103.288,125.580 103.989 C 126.898 104.695,126.873 106.221,125.441 112.316 C 124.680 115.552,123.843 119.280,123.581 120.600 C 123.319 121.920,122.223 125.184,121.145 127.854 C 120.006 130.677,118.691 134.946,118.003 138.054 C 116.480 144.936,116.223 145.808,114.581 149.644 C 113.691 151.723,112.655 155.526,111.616 160.521 C 110.738 164.746,109.559 169.551,108.996 171.201 C 106.122 179.623,103.854 193.822,103.822 203.600 L 103.800 210.200 105.132 213.286 C 107.604 219.017,110.157 220.190,119.548 219.910 C 125.893 219.721,128.387 219.093,131.221 216.968 C 131.980 216.399,134.141 215.154,136.024 214.201 C 137.908 213.248,140.518 211.583,141.824 210.501 C 143.131 209.419,145.280 207.803,146.600 206.909 C 147.920 206.015,149.540 204.704,150.200 203.996 C 150.860 203.287,152.390 201.971,153.600 201.071 C 154.810 200.171,156.799 198.437,158.021 197.218 C 159.242 195.998,161.008 194.370,161.944 193.600 C 166.902 189.523,165.181 181.207,159.378 181.201 C 157.381 181.200,153.492 183.703,147.780 188.668 C 140.984 194.575,135.896 197.645,134.191 196.869 C 131.263 195.534,132.084 183.012,135.616 175.132 C 136.595 172.949,137.478 170.059,138.000 167.332 C 139.580 159.076,140.105 156.979,141.686 152.600 C 142.560 150.180,143.957 144.952,144.791 140.983 C 145.915 135.628,146.666 133.047,147.697 130.983 C 149.490 127.395,150.147 125.314,151.417 119.200 C 152.067 116.068,153.104 112.680,154.193 110.131 C 158.578 99.867,159.434 85.869,155.907 82.104 C 153.454 79.485,144.840 78.461,137.923 79.966 M148.227 82.435 C 156.101 83.879,157.312 89.862,152.428 103.190 C 151.579 105.506,150.249 110.214,149.472 113.652 C 148.640 117.330,147.403 121.448,146.466 123.652 C 144.611 128.020,143.931 130.294,142.813 135.872 C 142.364 138.111,141.264 141.981,140.369 144.472 C 139.473 146.962,138.128 151.764,137.380 155.143 C 136.632 158.521,135.033 164.284,133.828 167.950 C 130.005 179.577,128.177 193.371,129.932 197.339 C 131.900 201.788,138.365 201.729,142.621 197.224 C 143.489 196.305,145.100 195.006,146.200 194.337 C 147.300 193.669,149.190 192.174,150.400 191.015 C 153.342 188.196,158.862 185.221,159.762 185.968 C 162.214 188.004,158.643 193.020,150.286 199.280 C 149.199 200.093,146.935 201.935,145.255 203.372 C 139.213 208.539,135.804 210.957,132.737 212.250 C 131.038 212.967,128.332 214.275,126.724 215.158 C 118.169 219.852,109.215 217.405,107.142 209.806 C 105.818 204.953,107.370 189.327,110.004 181.000 C 110.839 178.360,112.168 172.921,112.957 168.912 C 113.963 163.802,114.986 160.020,116.380 156.254 C 117.551 153.092,118.802 148.695,119.423 145.560 C 120.117 142.054,121.137 138.590,122.406 135.418 C 123.586 132.472,124.886 128.145,125.754 124.281 C 126.607 120.482,127.803 116.485,128.754 114.259 C 131.454 107.941,131.790 103.499,129.724 101.433 C 127.731 99.440,121.896 99.432,119.232 101.418 C 114.720 104.783,111.523 107.339,109.000 109.599 C 104.464 113.662,102.514 114.476,101.093 112.900 C 99.398 111.019,100.010 108.581,102.676 106.598 C 103.514 105.974,105.393 104.280,106.851 102.832 C 112.457 97.265,114.339 95.629,117.024 93.986 C 118.551 93.052,120.352 91.866,121.027 91.352 C 121.702 90.838,123.862 89.687,125.827 88.795 C 127.792 87.902,130.930 86.389,132.800 85.432 C 136.755 83.407,138.164 82.919,141.419 82.445 C 144.821 81.949,145.568 81.948,148.227 82.435 M281.600 218.241 C 277.738 218.575,274.820 219.340,270.400 221.179 C 267.870 222.232,264.852 223.403,263.694 223.781 C 262.536 224.159,260.782 225.038,259.796 225.734 C 255.131 229.030,250.392 232.888,249.545 234.081 C 249.029 234.806,247.464 236.647,246.067 238.172 C 237.802 247.187,234.258 264.176,237.925 277.200 C 239.323 282.166,243.581 291.131,245.681 293.531 C 249.540 297.942,248.177 301.893,241.600 305.360 C 240.390 305.998,238.230 307.371,236.800 308.411 C 235.370 309.451,233.480 310.666,232.600 311.112 C 231.720 311.557,230.249 312.524,229.331 313.261 C 228.414 313.997,226.079 315.860,224.143 317.400 C 205.109 332.545,196.905 352.754,203.222 368.937 C 208.411 382.228,217.278 390.578,229.953 394.109 C 233.778 395.174,255.096 395.424,259.400 394.454 C 261.817 393.909,262.421 393.679,270.800 390.114 C 279.215 386.533,290.318 377.047,296.268 368.356 C 300.268 362.513,300.873 361.285,303.444 353.800 L 305.780 347.000 305.790 340.800 C 305.797 336.576,305.617 333.963,305.225 332.600 C 303.952 328.173,300.355 318.947,299.231 317.229 C 298.574 316.223,297.032 313.743,295.805 311.719 C 294.579 309.694,292.716 307.084,291.665 305.919 C 290.614 304.753,289.326 303.170,288.804 302.400 C 288.281 301.630,287.256 300.324,286.526 299.499 C 283.957 296.591,284.703 295.595,294.030 289.471 C 304.262 282.753,317.481 268.091,319.694 261.005 C 320.689 257.821,321.113 246.536,320.432 241.400 C 318.611 227.679,300.107 216.643,281.600 218.241 M296.590 223.986 C 305.622 226.161,309.882 228.956,314.488 235.732 C 319.188 242.646,319.383 255.432,314.897 262.522 C 314.035 263.885,312.715 266.068,311.965 267.373 C 310.367 270.152,301.752 279.067,298.200 281.619 C 296.880 282.567,295.006 284.033,294.037 284.878 C 293.067 285.722,290.637 287.348,288.637 288.491 C 284.194 291.030,281.364 293.721,280.979 295.771 C 280.493 298.364,280.944 299.062,289.505 308.965 C 290.663 310.304,292.349 312.840,293.252 314.600 C 294.155 316.360,295.589 318.888,296.440 320.217 C 302.946 330.388,302.844 351.300,296.239 361.197 C 295.284 362.629,294.096 364.610,293.599 365.600 C 292.487 367.817,287.712 373.520,285.692 375.042 C 284.871 375.661,283.210 377.097,282.000 378.235 C 280.790 379.373,278.900 380.763,277.800 381.324 C 276.700 381.885,274.938 383.067,273.884 383.950 C 271.501 385.946,268.661 387.028,263.718 387.823 C 261.608 388.163,259.339 388.721,258.676 389.064 C 250.134 393.481,236.674 392.611,222.899 386.751 C 220.845 385.877,214.666 380.563,213.000 378.237 C 212.340 377.315,211.117 375.732,210.283 374.719 C 204.649 367.875,204.602 348.648,210.197 339.810 C 210.898 338.705,212.042 336.720,212.740 335.400 C 215.485 330.213,224.464 321.628,234.318 314.768 C 239.803 310.949,243.238 308.767,246.261 307.180 C 250.119 305.153,250.657 304.476,251.819 300.186 C 252.713 296.883,252.284 295.660,248.426 290.503 C 245.248 286.255,244.523 284.529,242.348 276.029 C 237.782 258.180,244.055 241.398,259.200 230.951 C 260.630 229.964,262.640 228.561,263.666 227.832 C 265.634 226.434,267.855 225.752,277.200 223.677 C 285.069 221.930,288.264 221.981,296.590 223.986 M147.875 230.014 C 143.405 230.424,139.725 231.550,136.317 233.552 C 134.842 234.419,132.322 235.791,130.717 236.601 C 129.113 237.411,126.767 238.878,125.504 239.860 C 124.242 240.842,121.992 242.197,120.504 242.869 C 115.657 245.061,106.672 251.631,100.019 257.847 C 98.579 259.194,96.590 260.794,95.600 261.404 C 94.610 262.014,93.039 263.208,92.109 264.057 C 87.522 268.243,87.273 265.678,90.843 251.000 C 92.661 243.525,92.420 236.916,90.207 233.548 C 86.946 228.588,70.854 228.606,62.771 233.580 C 61.671 234.257,59.041 235.530,56.927 236.410 C 54.812 237.290,52.051 238.714,50.791 239.574 C 49.530 240.435,47.413 241.687,46.085 242.357 C 44.757 243.027,42.544 244.526,41.167 245.688 C 39.791 246.850,37.100 249.060,35.189 250.600 C 20.116 262.742,19.048 263.907,18.541 268.759 C 17.348 280.173,27.521 280.718,38.200 269.813 C 53.070 254.629,58.988 256.928,52.255 275.273 C 51.473 277.403,50.367 281.633,49.796 284.673 C 49.225 287.713,47.611 294.340,46.209 299.400 C 44.807 304.460,43.002 311.750,42.198 315.600 C 41.394 319.450,40.397 323.860,39.982 325.400 C 39.567 326.940,38.763 330.990,38.194 334.400 C 36.960 341.802,36.490 343.733,34.208 350.800 C 33.248 353.773,32.083 358.537,31.617 361.400 C 30.327 369.315,29.744 371.614,28.200 374.865 C 22.289 387.312,29.518 394.207,46.600 392.412 C 55.020 391.527,58.252 389.344,60.756 382.851 C 62.145 379.249,62.362 378.369,67.231 356.600 C 69.002 348.680,71.436 337.880,72.638 332.600 C 73.841 327.320,75.182 321.290,75.620 319.200 C 77.634 309.572,82.279 299.012,86.867 293.629 C 93.836 285.453,96.880 282.443,103.393 277.292 C 104.709 276.252,106.689 274.574,107.793 273.564 C 108.897 272.554,111.060 270.899,112.600 269.887 C 114.140 268.874,116.480 267.311,117.800 266.412 C 127.320 259.933,135.443 262.663,133.235 271.600 C 131.996 276.615,128.166 290.553,126.969 294.400 C 126.183 296.930,124.845 301.988,123.998 305.640 C 123.150 309.292,121.661 314.422,120.688 317.040 C 118.710 322.364,117.460 326.831,116.781 331.000 C 116.040 335.556,115.241 338.312,113.424 342.575 C 106.974 357.703,106.808 384.672,113.123 391.337 C 118.339 396.843,135.438 397.215,143.806 392.005 C 145.129 391.181,147.379 389.920,148.806 389.202 C 150.233 388.485,152.685 386.886,154.255 385.649 C 155.825 384.412,158.615 382.269,160.455 380.887 C 177.209 368.303,182.133 362.957,182.133 357.352 C 182.134 345.389,173.259 345.291,161.558 357.124 C 150.680 368.126,145.170 370.582,143.170 365.320 C 142.285 362.993,145.090 347.334,147.582 340.691 C 148.426 338.441,149.767 333.936,150.563 330.679 C 151.358 327.423,152.993 322.023,154.196 318.679 C 156.826 311.366,160.557 298.953,162.756 290.200 C 163.640 286.680,165.177 281.739,166.172 279.220 C 168.191 274.107,168.601 272.374,170.430 261.203 C 174.112 238.706,166.587 228.300,147.875 230.014 M278.600 229.840 C 272.510 231.360,270.826 232.136,266.914 235.226 C 252.568 246.556,252.539 264.819,266.839 282.149 C 272.016 288.422,275.195 288.864,280.520 284.048 C 281.887 282.812,283.931 281.123,285.062 280.296 C 286.192 279.469,287.215 278.539,287.334 278.229 C 287.453 277.918,288.724 276.776,290.158 275.690 C 291.593 274.604,293.422 272.925,294.224 271.958 C 295.025 270.991,296.469 269.480,297.432 268.600 C 299.524 266.690,304.006 258.905,305.009 255.439 C 307.761 245.931,300.717 234.007,290.429 230.758 C 287.864 229.948,280.467 229.374,278.600 229.840 M158.269 233.816 C 160.893 235.100,164.151 238.939,166.088 243.029 C 168.659 248.459,167.427 262.416,163.345 274.110 C 160.855 281.242,159.294 286.441,157.973 292.000 C 157.267 294.970,155.724 300.190,154.543 303.600 C 153.362 307.010,151.863 311.710,151.212 314.045 C 150.560 316.380,149.199 320.516,148.186 323.237 C 147.174 325.958,145.533 331.337,144.540 335.192 C 143.548 339.046,142.294 343.910,141.755 346.000 C 138.926 356.963,137.936 365.523,139.208 368.015 C 142.591 374.647,149.780 373.140,159.866 363.685 C 169.373 354.772,174.526 352.126,177.190 354.790 C 180.383 357.983,176.891 363.095,165.200 372.344 C 162.890 374.172,159.740 376.705,158.200 377.972 C 156.660 379.240,154.590 380.794,153.600 381.426 C 152.610 382.058,150.810 383.325,149.600 384.241 C 139.875 391.604,127.626 394.898,120.836 391.977 C 110.983 387.739,109.223 369.140,116.619 347.400 C 117.592 344.540,118.947 339.432,119.630 336.048 C 120.312 332.665,121.672 327.639,122.650 324.880 C 123.629 322.121,125.127 316.879,125.979 313.232 C 126.831 309.584,128.362 304.260,129.382 301.401 C 130.402 298.541,131.690 294.401,132.245 292.201 C 132.800 290.000,134.166 285.050,135.281 281.200 C 137.773 272.591,138.368 269.956,138.386 267.446 C 138.427 261.734,134.773 258.000,129.141 258.000 C 125.548 258.000,115.709 262.531,110.200 266.723 C 97.568 276.336,94.032 279.401,90.268 284.000 C 88.917 285.650,86.370 288.542,84.606 290.426 C 80.216 295.117,76.338 302.000,74.483 308.393 C 73.748 310.927,72.448 315.160,71.595 317.800 C 69.627 323.892,69.036 326.259,67.997 332.200 C 67.536 334.840,66.430 339.700,65.540 343.000 C 63.922 349.000,60.999 361.879,58.776 372.800 C 56.350 384.714,54.814 386.572,46.513 387.631 C 34.539 389.158,29.360 384.627,32.638 375.492 C 33.839 372.144,34.181 370.872,36.208 362.200 C 37.031 358.680,38.474 353.092,39.414 349.781 C 40.354 346.471,41.423 341.881,41.790 339.581 C 43.100 331.353,43.617 328.890,45.394 322.390 C 46.384 318.766,47.934 312.380,48.836 308.200 C 49.739 304.020,51.284 297.810,52.271 294.400 C 53.257 290.990,54.599 285.680,55.252 282.600 C 55.904 279.520,57.169 274.148,58.062 270.662 C 60.679 260.447,59.931 256.982,54.809 255.602 C 52.100 254.873,46.875 256.706,44.000 259.394 C 43.230 260.114,41.610 261.387,40.400 262.224 C 39.190 263.061,37.030 264.928,35.600 266.373 C 29.433 272.605,23.600 273.632,23.600 268.485 C 23.600 266.094,24.741 264.342,27.540 262.436 C 28.783 261.590,30.160 260.489,30.600 259.989 C 31.040 259.490,32.750 258.088,34.400 256.874 C 36.050 255.660,38.222 253.932,39.227 253.033 C 45.977 247.001,54.503 241.540,61.522 238.752 C 63.215 238.079,66.258 236.659,68.284 235.596 C 75.659 231.727,84.411 231.768,86.793 235.685 C 89.523 240.174,88.585 247.610,83.732 259.930 C 80.486 268.174,81.090 274.010,85.189 273.997 C 86.388 273.993,91.933 270.127,95.419 266.864 C 106.786 256.224,124.517 243.683,135.440 238.558 C 137.442 237.618,139.962 236.330,141.040 235.695 C 146.829 232.285,153.625 231.544,158.269 233.816 M288.418 233.843 C 290.534 234.471,296.037 238.111,297.950 240.147 C 298.453 240.682,299.387 242.623,300.027 244.460 C 303.596 254.715,298.608 264.664,284.013 276.400 C 277.529 281.614,274.698 283.029,272.631 282.087 C 271.376 281.515,265.283 274.209,264.385 272.200 C 258.502 259.038,258.247 254.725,262.815 245.600 C 264.988 241.259,265.189 241.047,270.583 237.385 C 276.805 233.162,282.391 232.053,288.418 233.843 M255.630 308.218 C 251.654 310.069,248.440 312.679,237.487 322.954 C 233.100 327.070,227.030 334.608,225.590 337.730 C 220.295 349.205,218.772 358.227,221.086 364.400 C 224.034 372.264,224.838 373.638,228.805 377.600 L 232.611 381.400 238.868 384.098 C 248.240 388.140,253.429 388.448,258.676 385.276 C 260.244 384.328,263.074 382.945,264.965 382.203 C 268.561 380.791,274.141 376.325,276.007 373.364 C 276.435 372.685,277.673 370.927,278.757 369.458 C 285.382 360.483,286.467 347.291,281.640 334.397 C 280.657 331.773,274.098 321.189,272.222 319.200 C 271.496 318.430,270.113 316.707,269.151 315.372 C 267.419 312.969,262.906 308.826,260.859 307.757 C 259.336 306.963,258.091 307.072,255.630 308.218 M262.791 314.226 C 264.076 315.235,265.897 317.172,266.838 318.530 C 267.780 319.889,269.627 322.260,270.944 323.800 C 272.260 325.340,273.856 327.742,274.490 329.138 C 275.124 330.534,276.258 332.604,277.010 333.738 C 282.144 341.481,282.106 357.345,276.934 365.021 C 276.052 366.330,274.723 368.551,273.979 369.958 C 272.849 372.096,272.197 372.794,270.013 374.206 C 268.576 375.135,266.709 376.452,265.864 377.132 C 260.881 381.147,247.551 382.507,239.322 379.841 C 233.933 378.095,228.355 372.688,226.649 367.554 C 223.648 358.530,225.063 345.291,229.734 338.693 C 230.705 337.322,231.799 335.611,232.164 334.892 C 233.077 333.096,237.641 328.156,242.597 323.600 C 256.255 311.044,257.819 310.319,262.791 314.226 " stroke="none" fill="#d7dae0" fill-rule="evenodd"></path><path id="path3" d="M277.200 223.677 C 267.855 225.752,265.634 226.434,263.666 227.832 C 262.640 228.561,260.630 229.964,259.200 230.951 C 252.210 235.773,245.693 243.764,243.665 250.000 C 240.208 260.628,239.911 266.503,242.348 276.029 C 244.523 284.529,245.248 286.255,248.426 290.503 C 252.284 295.660,252.713 296.883,251.819 300.186 C 250.657 304.476,250.119 305.153,246.261 307.180 C 243.238 308.767,239.803 310.949,234.318 314.768 C 224.560 321.560,215.514 330.185,212.782 335.300 C 212.106 336.565,211.643 337.600,211.753 337.600 C 211.863 337.600,212.509 336.557,213.189 335.281 C 215.135 331.630,224.309 322.873,229.600 319.616 C 230.810 318.871,232.340 317.772,233.000 317.174 C 234.551 315.768,242.637 311.927,242.833 312.503 C 243.546 314.598,242.457 316.112,234.358 324.281 C 233.005 325.646,231.110 327.896,230.146 329.281 C 229.183 330.667,227.745 332.737,226.952 333.883 C 226.158 335.029,224.733 338.089,223.784 340.683 C 222.835 343.277,221.569 346.660,220.972 348.200 C 216.610 359.443,223.288 376.920,234.200 382.819 C 235.520 383.532,237.320 384.634,238.200 385.268 C 239.080 385.901,240.753 387.076,241.917 387.878 C 244.819 389.877,244.226 390.522,239.542 390.461 C 235.276 390.406,223.696 387.199,220.866 385.288 C 219.598 384.433,219.502 384.413,220.155 385.142 C 221.598 386.753,233.906 390.980,238.957 391.600 C 245.541 392.408,254.417 391.267,258.676 389.064 C 259.339 388.721,261.608 388.163,263.718 387.823 C 268.661 387.028,271.501 385.946,273.884 383.950 C 274.938 383.067,276.700 381.885,277.800 381.324 C 278.900 380.763,280.790 379.373,282.000 378.235 C 283.210 377.097,284.871 375.661,285.692 375.042 C 287.712 373.520,292.487 367.817,293.599 365.600 C 294.096 364.610,295.284 362.629,296.239 361.197 C 302.844 351.300,302.946 330.388,296.440 320.217 C 295.589 318.888,294.155 316.360,293.252 314.600 C 292.349 312.840,290.663 310.304,289.505 308.965 C 280.944 299.062,280.493 298.364,280.979 295.771 C 281.364 293.721,284.194 291.030,288.637 288.491 C 290.637 287.348,293.067 285.722,294.037 284.878 C 295.006 284.033,296.880 282.567,298.200 281.619 C 301.752 279.067,310.367 270.152,311.965 267.373 C 312.715 266.068,314.035 263.885,314.897 262.522 C 317.455 258.480,317.738 257.148,317.771 249.000 C 317.809 239.635,316.663 236.989,309.679 230.322 C 302.559 223.524,289.720 220.897,277.200 223.677 M299.800 226.947 C 302.448 227.520,304.365 228.394,305.211 229.413 C 305.515 229.780,306.790 230.869,308.045 231.835 C 310.220 233.508,312.540 236.715,314.939 241.362 C 319.034 249.297,312.523 266.752,302.463 274.807 C 301.438 275.627,300.060 276.884,299.400 277.600 C 298.740 278.315,297.030 279.664,295.600 280.597 C 294.170 281.531,292.550 282.786,292.000 283.387 C 290.833 284.664,286.212 287.096,284.612 287.276 C 281.683 287.605,282.596 284.951,286.281 282.427 C 287.383 281.672,288.699 280.449,289.205 279.711 C 289.711 278.973,290.862 277.799,291.762 277.103 C 294.162 275.250,301.002 268.363,301.598 267.200 C 301.880 266.650,303.070 264.760,304.242 263.000 C 309.348 255.335,309.026 245.032,303.457 237.852 C 299.318 232.517,298.496 231.739,295.163 230.005 C 289.323 226.967,291.934 225.245,299.800 226.947 M273.503 228.092 C 273.349 228.552,268.050 230.393,266.867 230.398 C 265.838 230.402,266.657 229.391,268.405 228.500 C 270.345 227.511,273.788 227.235,273.503 228.092 M290.429 230.758 C 300.717 234.007,307.761 245.931,305.009 255.439 C 304.006 258.905,299.524 266.690,297.432 268.600 C 296.469 269.480,295.025 270.991,294.224 271.958 C 293.422 272.925,291.593 274.604,290.158 275.690 C 288.724 276.776,287.453 277.918,287.334 278.229 C 287.215 278.539,286.192 279.469,285.062 280.296 C 283.931 281.123,281.887 282.812,280.520 284.048 C 278.055 286.277,275.971 287.200,273.403 287.200 C 268.096 287.200,257.387 270.090,256.448 260.110 C 255.003 244.750,263.079 233.715,278.600 229.840 C 280.467 229.374,287.864 229.948,290.429 230.758 M148.611 232.802 C 146.075 233.257,143.522 234.233,141.040 235.695 C 139.962 236.330,137.442 237.618,135.440 238.558 C 124.517 243.683,106.786 256.224,95.419 266.864 C 91.933 270.127,86.388 273.993,85.189 273.997 C 81.090 274.010,80.486 268.174,83.732 259.930 C 88.585 247.610,89.523 240.174,86.793 235.685 C 84.411 231.768,75.659 231.727,68.284 235.596 C 66.258 236.659,63.215 238.079,61.522 238.752 C 54.503 241.540,45.977 247.001,39.227 253.033 C 38.222 253.932,36.050 255.660,34.400 256.874 C 32.750 258.088,31.040 259.490,30.600 259.989 C 30.160 260.489,28.783 261.590,27.540 262.436 C 24.741 264.342,23.600 266.094,23.600 268.485 C 23.600 273.632,29.433 272.605,35.600 266.373 C 37.030 264.928,39.190 263.061,40.400 262.224 C 41.610 261.387,43.230 260.114,44.000 259.394 C 46.875 256.706,52.100 254.873,54.809 255.602 C 59.931 256.982,60.679 260.447,58.062 270.662 C 57.169 274.148,55.904 279.520,55.252 282.600 C 54.599 285.680,53.257 290.990,52.271 294.400 C 51.284 297.810,49.739 304.020,48.836 308.200 C 47.934 312.380,46.384 318.766,45.394 322.390 C 43.617 328.890,43.100 331.353,41.790 339.581 C 41.423 341.881,40.354 346.471,39.414 349.781 C 38.474 353.092,37.031 358.680,36.208 362.200 C 34.181 370.872,33.839 372.144,32.638 375.492 C 29.360 384.627,34.539 389.158,46.513 387.631 C 54.814 386.572,56.350 384.714,58.776 372.800 C 60.999 361.879,63.922 349.000,65.540 343.000 C 66.430 339.700,67.536 334.840,67.997 332.200 C 69.036 326.259,69.627 323.892,71.595 317.800 C 72.448 315.160,73.748 310.927,74.483 308.393 C 76.338 302.000,80.216 295.117,84.606 290.426 C 86.370 288.542,88.917 285.650,90.268 284.000 C 94.032 279.401,97.568 276.336,110.200 266.723 C 115.709 262.531,125.548 258.000,129.141 258.000 C 134.773 258.000,138.427 261.734,138.386 267.446 C 138.368 269.956,137.773 272.591,135.281 281.200 C 134.166 285.050,132.800 290.000,132.245 292.201 C 131.690 294.401,130.402 298.541,129.382 301.401 C 128.362 304.260,126.831 309.584,125.979 313.232 C 125.127 316.879,123.629 322.121,122.650 324.880 C 121.672 327.639,120.312 332.665,119.630 336.048 C 118.947 339.432,117.592 344.540,116.619 347.400 C 109.223 369.140,110.983 387.739,120.836 391.977 C 127.626 394.898,139.875 391.604,149.600 384.241 C 150.810 383.325,152.610 382.058,153.600 381.426 C 154.590 380.794,156.660 379.240,158.200 377.972 C 159.740 376.705,162.890 374.172,165.200 372.344 C 176.891 363.095,180.383 357.983,177.190 354.790 C 174.526 352.126,169.373 354.772,159.866 363.685 C 149.780 373.140,142.591 374.647,139.208 368.015 C 137.936 365.523,138.926 356.963,141.755 346.000 C 142.294 343.910,143.548 339.046,144.540 335.192 C 145.533 331.337,147.174 325.958,148.186 323.237 C 149.199 320.516,150.560 316.380,151.212 314.045 C 151.863 311.710,153.362 307.010,154.543 303.600 C 155.724 300.190,157.267 294.970,157.973 292.000 C 159.294 286.441,160.855 281.242,163.345 274.110 C 167.427 262.416,168.659 248.459,166.088 243.029 C 162.151 234.716,156.468 231.390,148.611 232.802 M264.400 232.711 C 264.400 233.156,263.269 234.762,261.736 236.493 C 253.082 246.268,251.760 261.750,258.585 273.400 C 259.746 275.380,261.102 277.810,261.601 278.800 C 262.099 279.790,264.009 282.340,265.846 284.467 C 269.436 288.623,270.284 289.131,273.800 289.231 C 280.006 289.409,280.420 289.689,279.408 293.025 C 278.046 297.513,278.864 300.297,282.820 304.642 C 287.728 310.032,291.501 315.089,292.391 317.471 C 292.870 318.752,294.141 321.330,295.216 323.200 C 300.110 331.717,300.509 347.821,296.039 356.400 C 295.408 357.610,293.990 360.349,292.888 362.487 C 290.514 367.092,285.512 372.917,283.101 373.885 C 282.271 374.218,280.871 375.360,279.962 376.445 C 278.374 378.342,276.897 379.154,276.022 378.613 C 275.466 378.270,276.009 377.269,278.222 374.551 C 281.097 371.022,284.368 364.232,286.838 356.664 C 289.268 349.217,285.407 333.277,279.279 325.464 C 278.216 324.109,276.845 322.127,276.233 321.059 C 275.620 319.992,274.279 318.192,273.254 317.059 C 272.228 315.927,270.973 314.326,270.464 313.503 C 269.108 311.309,262.976 306.074,261.244 305.632 C 260.450 305.429,258.683 305.142,257.318 304.995 C 254.064 304.642,253.715 304.205,254.326 301.246 C 255.268 296.687,254.051 293.689,248.513 286.922 C 242.801 279.942,241.761 257.241,246.719 247.725 C 249.045 243.259,257.898 233.972,260.800 232.953 C 262.409 232.387,264.400 232.254,264.400 232.711 M82.806 236.203 C 86.524 238.126,86.641 245.215,83.071 252.259 C 80.733 256.875,77.978 269.492,78.632 272.594 C 79.367 276.081,82.063 278.039,86.264 278.140 C 89.284 278.211,89.228 277.980,87.240 282.163 C 85.992 284.790,85.166 285.928,83.404 287.450 C 81.289 289.276,77.944 293.762,75.427 298.149 C 72.330 303.548,66.529 322.212,63.975 335.000 C 62.876 340.500,61.095 348.510,60.017 352.800 C 57.631 362.295,57.026 365.216,55.993 372.248 C 54.530 382.205,52.128 384.515,43.200 384.557 C 36.056 384.590,33.504 380.992,36.136 374.600 C 36.680 373.280,37.596 369.731,38.171 366.714 C 38.747 363.697,40.031 358.567,41.025 355.314 C 43.336 347.748,43.444 347.250,44.404 339.668 C 45.275 332.789,45.692 331.088,48.010 324.980 C 48.954 322.494,49.795 319.290,50.214 316.580 C 51.631 307.429,52.797 302.477,54.644 297.758 C 56.463 293.111,57.306 289.571,58.550 281.351 C 58.887 279.124,59.794 275.344,60.566 272.951 C 64.967 259.304,64.099 255.946,55.061 251.652 C 53.157 250.747,51.600 249.817,51.600 249.584 C 51.600 247.114,56.378 243.870,64.800 240.623 C 66.890 239.818,69.770 238.510,71.200 237.719 C 75.900 235.115,79.735 234.615,82.806 236.203 M156.422 236.335 C 160.190 238.741,163.143 243.151,164.029 247.695 C 164.989 252.619,162.191 270.106,159.640 275.129 C 158.414 277.541,156.937 282.724,156.198 287.200 C 155.549 291.137,154.219 295.369,151.862 301.000 C 151.310 302.320,150.292 305.920,149.600 309.000 C 148.630 313.316,147.808 315.747,146.018 319.600 C 143.776 324.425,143.145 326.501,141.823 333.423 C 141.484 335.196,140.588 338.616,139.831 341.023 C 136.053 353.037,134.377 364.643,135.811 368.851 C 137.624 374.172,145.507 377.333,150.400 374.701 C 156.591 371.371,157.948 370.418,160.986 367.268 C 162.754 365.436,165.010 363.468,166.000 362.895 C 166.990 362.322,168.561 361.166,169.491 360.327 C 171.260 358.730,172.661 358.372,173.061 359.415 C 173.337 360.133,172.253 361.449,170.742 362.230 C 170.159 362.531,169.126 363.682,168.447 364.786 C 167.555 366.236,166.635 367.101,165.138 367.897 C 163.998 368.504,162.022 370.035,160.747 371.300 C 159.472 372.565,158.227 373.600,157.980 373.600 C 157.733 373.600,156.421 374.660,155.065 375.956 C 152.049 378.839,147.505 382.044,142.200 385.032 C 140.000 386.271,137.210 387.879,136.000 388.604 C 128.782 392.929,122.987 392.042,118.601 385.940 C 113.475 378.809,113.248 370.325,117.784 355.432 C 118.779 352.162,120.054 347.307,120.616 344.643 C 122.039 337.893,122.950 334.462,124.609 329.600 C 125.397 327.290,126.830 322.160,127.794 318.200 C 128.757 314.240,130.824 307.310,132.387 302.800 C 133.950 298.290,136.215 290.640,137.421 285.800 C 138.627 280.960,140.049 275.532,140.582 273.738 C 145.387 257.570,132.956 249.367,117.600 258.573 C 115.533 259.812,109.321 262.400,108.413 262.400 C 106.676 262.400,108.924 259.188,111.795 257.568 C 112.950 256.916,114.954 255.455,116.248 254.321 C 117.541 253.187,119.860 251.445,121.400 250.450 C 122.940 249.455,125.207 247.912,126.438 247.021 C 129.059 245.123,139.428 239.828,147.800 236.112 C 150.798 234.782,154.123 234.868,156.422 236.335 M106.400 264.240 C 106.400 265.283,103.807 267.600,102.640 267.600 C 100.777 267.600,101.568 265.124,103.731 264.183 C 105.433 263.443,106.400 263.464,106.400 264.240 M260.859 307.757 C 262.906 308.826,267.419 312.969,269.151 315.372 C 270.113 316.707,271.496 318.430,272.222 319.200 C 274.098 321.189,280.657 331.773,281.640 334.397 C 286.467 347.291,285.382 360.483,278.757 369.458 C 277.673 370.927,276.435 372.685,276.007 373.364 C 274.141 376.325,268.561 380.791,264.965 382.203 C 263.074 382.945,260.244 384.328,258.676 385.276 C 253.429 388.448,248.240 388.140,238.868 384.098 L 232.611 381.400 228.805 377.600 C 225.384 374.183,224.844 373.437,223.455 370.200 C 218.814 359.383,218.769 355.393,223.155 343.800 C 225.631 337.254,226.059 336.461,229.768 331.530 C 233.744 326.243,244.502 315.816,250.630 311.309 C 255.601 307.653,258.638 306.599,260.859 307.757 M247.388 309.980 C 247.517 310.189,247.269 310.549,246.837 310.780 C 245.801 311.334,245.600 311.311,245.600 310.633 C 245.600 309.799,246.967 309.299,247.388 309.980 " stroke="none" fill="#d7dae0" fill-rule="evenodd"></path></g></svg>